HIERARCHY
ROOT Hips
{
	OFFSET -8.230994 107.569221 -0.381315
	CHANNELS 6 Xposition Yposition Zposition Xrotation Yrotation Zrotation
	JOINT Chest
	{
		OFFSET -0.084330 13.643433 0.061230
		CHANNELS 3 Xrotation Yrotation Zrotation
		JOINT Chest2
		{
			OFFSET -1.465308 20.980064 4.093420
			CHANNELS 3 Xrotation Yrotation Zrotation
			JOINT Chest3
			{
				OFFSET -0.897286 14.837189 1.368502
				CHANNELS 3 Xrotation Yrotation Zrotation
				JOINT Neck
				{
					OFFSET -0.446065 17.147263 2.094845
					CHANNELS 3 Xrotation Yrotation Zrotation
					JOINT Head
					{
						OFFSET -0.999531 10.181046 2.274821
						CHANNELS 3 Xrotation Yrotation Zrotation
						End Site
						{
							OFFSET -0.992831 10.197296 2.203879
						}
					}
				}
				JOINT LeftCollar
				{
					OFFSET 4.098634 12.965591 4.110819
					CHANNELS 3 Xrotation Yrotation Zrotation
					JOINT LeftUpArm
					{
						OFFSET 15.941536 -1.404205 -7.238447
						CHANNELS 3 Xrotation Yrotation Zrotation
						JOINT LeftLowArm
						{
							OFFSET 28.532085 -14.197495 11.139097
							CHANNELS 3 Xrotation Yrotation Zrotation
							JOINT LeftHand
							{
								OFFSET 9.959320 5.088684 27.854336
								CHANNELS 3 Xrotation Yrotation Zrotation
								End Site
								{
									OFFSET 2.176662 1.112198 6.087723
								}
							}
						}
					}
				}
				JOINT RightCollar
				{
					OFFSET -4.283508 12.662460 4.808584
					CHANNELS 3 Xrotation Yrotation Zrotation
					JOINT RightUpArm
					{
						OFFSET -15.896010 -4.907272 -5.633087
						CHANNELS 3 Xrotation Yrotation Zrotation
						JOINT RightLowArm
						{
							OFFSET -19.998260 -26.801865 4.632881
							CHANNELS 3 Xrotation Yrotation Zrotation
							JOINT RightHand
							{
								OFFSET -19.055496 -19.265617 12.910404
								CHANNELS 3 Xrotation Yrotation Zrotation
								End Site
								{
									OFFSET -4.164787 -4.210678 2.821693
								}
							}
						}
					}
				}
			}
		}
	}
	JOINT LeftUpLeg
	{
		OFFSET 10.020582 0.061470 0.057257
		CHANNELS 3 Xrotation Yrotation Zrotation
		JOINT LeftLowLeg
		{
			OFFSET 14.011996 -44.814365 6.271056
			CHANNELS 3 Xrotation Yrotation Zrotation
			JOINT LeftFoot
			{
				OFFSET 8.087433 -41.528252 -14.510897
				CHANNELS 3 Xrotation Yrotation Zrotation
				JOINT LeftToe
				{
					OFFSET 0.857546 -21.049156 10.759054
					CHANNELS 3 Xrotation Yrotation Zrotation
					End Site
					{
						OFFSET -1.089020 -9.537832 21.619499
					}
				}
			}
		}
	}
	JOINT RightUpLeg
	{
		OFFSET -10.020585 -0.061668 -0.057258
		CHANNELS 3 Xrotation Yrotation Zrotation
		JOINT RightLowLeg
		{
			OFFSET -9.548100 -45.915085 6.682090
			CHANNELS 3 Xrotation Yrotation Zrotation
			JOINT RightFoot
			{
				OFFSET -1.274153 -41.416191 -16.842058
				CHANNELS 3 Xrotation Yrotation Zrotation
				JOINT RightToe
				{
					OFFSET -4.828726 -21.659544 8.191710
					CHANNELS 3 Xrotation Yrotation Zrotation
					End Site
					{
						OFFSET -7.616405 -10.859426 19.586205
					}
				}
			}
		}
	}
}
MOTION
Frames: 14
Frame Time: 0.033333
-25.770031 115.436554 1.139648 0.049542 22.676703 11.858528 -3.491387 0.991204 -5.738349 -3.832313 -0.402329 1.148525 0.308917 -7.888130 -2.590951 -7.172211 -14.941491 12.483724 0.000001 0.000000 -0.000000 -2.297976 7.544861 -2.057978 15.543672 29.516615 -8.771270 65.047245 -41.227777 -53.245187 -0.000000 0.000005 -0.000000 -2.800744 1.765946 -29.379830 -5.372983 21.696921 -64.888908 8.072782 -9.205457 -7.320174 0.000003 0.000001 -0.000003 -28.141119 -11.810774 30.516302 59.116810 -30.169868 -80.179167 -30.300072 39.367585 33.805987 0.000000 -0.000001 0.000000 6.742369 -0.506423 -2.393590 -13.672605 -0.296725 0.933021 -3.941599 -5.934817 -1.492823 -0.000000 0.000000 -0.000000 
-26.153477 115.506889 1.176529 -0.416235 23.086407 11.482716 -2.920156 0.851911 -5.183506 -3.371391 -0.708213 1.503419 -0.366717 -7.386004 -3.053037 -7.446247 -15.320726 12.584061 0.000000 -0.000000 0.000000 -2.416652 7.441635 -1.985260 15.435975 29.465532 -8.756918 65.502265 -40.671943 -53.919767 0.000000 -0.000002 -0.000000 -3.178258 1.078225 -29.430162 -5.516849 22.086177 -64.454856 7.401263 -9.577915 -8.630503 -0.000003 0.000002 0.000003 -28.077745 -11.810375 30.005803 60.057614 -29.938191 -78.898097 -30.666364 38.758957 33.326539 0.000002 0.000002 -0.000001 7.352603 -0.483898 -1.912683 -14.078853 -0.562636 0.997927 -4.135487 -6.124123 -1.661263 0.000002 0.000002 0.000000 
-26.496559 115.574928 1.205517 0.227464 22.818241 10.960993 -3.147543 0.852228 -5.057671 -2.961314 -0.875477 1.701395 -0.690664 -7.265109 -3.134995 -7.846680 -15.520235 12.617443 0.000000 0.000001 0.000000 -2.369394 7.157817 -2.102818 15.629959 30.292767 -8.841059 65.529245 -40.806583 -54.287156 0.000001 0.000001 -0.000000 -3.360633 0.755445 -29.417519 -5.471759 21.244859 -65.281186 6.903118 -9.415199 -8.935946 -0.000003 0.000003 -0.000003 -27.555550 -11.590832 30.262949 58.679924 -29.532628 -79.895052 -30.890490 39.365905 34.108373 -0.000002 -0.000001 0.000000 6.923430 -0.393635 -1.710178 -14.141207 -0.546631 1.074416 -4.217968 -5.706785 -1.447509 -0.000002 -0.000001 -0.000001 
-26.814571 115.686104 1.214175 1.343979 22.720740 10.696680 -3.397238 0.856892 -5.022891 -5.025426 0.025239 0.593029 1.247786 -8.350404 -2.209390 -7.326676 -15.511366 12.981593 0.000001 0.000000 -0.000001 -2.332266 7.478532 -2.611844 15.313931 30.330200 -8.095522 65.502928 -40.867136 -54.024935 0.000002 0.000001 -0.000000 -3.330289 0.870456 -28.887442 -5.479780 20.208935 -66.576559 7.120012 -10.635761 -9.696872 -0.000006 0.000004 0.000004 -26.439107 -11.107646 30.432581 57.784411 -29.094123 -79.924866 -31.694041 39.037591 33.792518 0.000005 -0.000001 -0.000001 5.741147 -0.323869 -2.132311 -13.355706 -0.478984 1.791256 -6.954310 -5.879764 -1.171724 0.000000 -0.000002 0.000000 
-27.098759 115.799332 1.209831 2.188256 22.904624 10.415892 -2.881670 0.793055 -4.746205 -6.733930 0.520070 0.019054 2.363369 -9.321030 -1.966079 -6.955080 -15.592950 13.038692 0.000000 0.000001 -0.000002 -2.196979 7.375821 -2.985562 15.303461 30.825521 -7.435554 64.440779 -42.037933 -52.974650 0.000001 0.000003 0.000001 -2.933735 1.569007 -28.567486 -5.311350 19.234766 -67.119231 7.647810 -11.565716 -10.479756 0.000001 0.000000 -0.000003 -26.082262 -10.838403 30.233518 57.905941 -28.873351 -79.342879 -32.202266 38.665223 33.398249 -0.000003 -0.000001 -0.000001 4.335070 -0.202946 -2.548975 -12.032397 -0.587457 2.514869 -8.784028 -6.801618 -1.613209 0.000006 -0.000004 0.000000 
-27.323784 115.870392 1.212794 3.165035 22.941420 10.145949 -4.196031 0.921340 -5.136609 -4.145667 -0.243585 0.879720 0.376544 -8.224612 -2.572428 -8.115738 -15.835153 13.004594 -0.000000 -0.000001 0.000001 -1.965904 6.422121 -2.797119 15.416524 31.098674 -7.619267 64.515194 -41.800809 -53.003709 0.000000 -0.000004 0.000000 -3.257857 1.005027 -28.629038 -5.607112 20.283988 -66.594385 7.609025 -11.852794 -10.881696 -0.000003 0.000002 0.000006 -26.422998 -10.955222 29.904699 57.792587 -28.830024 -79.339416 -32.144206 38.613218 33.247312 0.000000 0.000002 -0.000004 3.477844 -0.092247 -2.718479 -12.499644 -0.575995 2.567628 -8.441053 -7.100684 -1.727224 0.000000 -0.000000 0.000001 
-27.512035 115.921097 1.221667 3.734833 22.894698 9.997361 -5.046907 1.019461 -5.317394 -2.477743 -0.680441 1.402683 -0.930217 -7.742348 -3.038404 -8.128654 -15.831311 13.062495 -0.000001 0.000000 -0.000000 -1.638599 5.364676 -2.639123 15.744884 31.793079 -8.055524 64.431565 -41.621913 -53.045305 0.000000 -0.000002 -0.000001 -3.446882 0.663788 -28.748461 -5.782025 20.532922 -66.532873 7.551722 -11.732497 -10.929957 -0.000002 0.000003 0.000002 -27.193982 -11.113348 29.427184 57.598903 -28.947161 -79.547976 -31.785453 38.611025 32.985237 -0.000002 0.000000 -0.000003 3.183840 -0.118896 -2.640744 -12.642284 -0.363975 2.398806 -8.564472 -7.027838 -1.630352 0.000002 -0.000001 -0.000001 
-27.660805 115.966171 1.228724 4.006783 22.726879 9.540223 -5.254360 1.017025 -5.168256 -2.263839 -0.753017 1.503171 -1.132646 -7.720312 -3.068181 -8.402366 -15.884640 13.063224 0.000001 -0.000000 0.000001 -1.620107 5.509991 -2.605420 15.670322 31.747949 -8.034162 64.304660 -41.692171 -52.818659 0.000000 0.000003 -0.000001 -3.448158 0.475255 -28.725105 -5.834502 20.576491 -66.375758 7.666636 -11.997786 -11.573131 -0.000003 0.000004 -0.000001 -26.922922 -10.944546 29.586057 57.664719 -28.801600 -79.180115 -31.944979 38.526707 32.741970 0.000000 0.000000 -0.000001 2.552146 -0.049651 -2.376175 -12.132959 -0.365996 2.425682 -8.410378 -6.990413 -1.617558 0.000001 -0.000000 0.000001 
-27.756611 115.995193 1.239925 4.559147 22.850753 9.130119 -5.499299 1.036555 -5.050927 -2.178942 -0.941750 1.735440 -1.234347 -7.927712 -3.339801 -8.517908 -15.870262 12.996216 0.000001 0.000000 -0.000002 -1.640704 5.628667 -2.603466 15.892563 32.046565 -8.038371 63.629059 -42.438452 -52.036196 0.000000 -0.000002 0.000000 -3.428638 0.417888 -28.671696 -5.641817 20.091734 -66.663206 7.705469 -11.753449 -11.718258 0.000001 -0.000001 -0.000000 -26.924536 -10.888221 29.465521 57.243221 -28.661929 -79.365589 -31.952188 38.637540 32.916806 0.000002 -0.000001 -0.000000 1.821380 0.078093 -2.385687 -12.093389 -0.279064 2.447225 -8.687119 -7.277092 -1.779720 0.000001 0.000000 -0.000000 
-27.818283 116.027267 1.250572 4.569282 22.875386 8.789725 -5.740474 1.004983 -4.882268 -2.087238 -1.042887 1.841699 -1.066897 -7.782581 -3.287608 -8.981991 -16.017600 13.002646 0.000002 -0.000001 0.000001 -1.744313 6.271921 -2.674867 15.564709 31.399244 -7.552250 64.011645 -42.383431 -51.852696 0.000000 0.000005 -0.000001 -3.317506 0.373383 -28.500696 -5.507526 20.309002 -66.617936 8.261344 -12.278559 -12.208001 -0.000003 0.000002 0.000003 -26.482508 -10.662872 29.461509 57.206290 -28.413534 -78.989478 -31.849811 38.784830 33.143244 0.000004 0.000001 -0.000001 1.702530 0.130320 -2.293490 -12.161346 -0.289861 2.455942 -8.463734 -7.553148 -2.014041 0.000001 -0.000001 -0.000001 
-27.821735 116.043282 1.270831 4.153339 22.774497 8.454447 -5.281343 0.902795 -4.652727 -2.157993 -0.989439 1.811415 -1.145838 -7.401238 -3.138446 -8.379087 -16.228004 13.325216 -0.000001 -0.000000 0.000001 -1.475804 6.388466 -2.476084 15.608072 30.325903 -7.648866 63.859503 -42.757790 -50.971291 0.000001 0.000003 -0.000001 -2.912468 0.571722 -28.113557 -5.153864 20.368782 -66.305940 8.431871 -12.298213 -12.402852 -0.000002 -0.000001 0.000001 -26.627539 -10.686909 28.867815 57.620145 -28.169001 -78.061747 -31.909291 38.769134 33.206966 0.000005 -0.000000 -0.000001 1.622907 0.206642 -2.092704 -11.134256 -0.330540 2.547376 -9.367023 -7.116978 -1.744590 -0.000000 -0.000001 -0.000001 
-27.768814 116.041634 1.302371 4.011752 22.426527 8.038521 -4.968301 0.829217 -4.458695 -3.447154 -0.740860 1.452846 -0.051184 -7.952155 -2.799325 -7.017598 -15.951422 13.474978 0.000000 0.000001 -0.000002 -1.493327 7.110784 -2.314743 15.643531 30.331234 -7.438447 64.367737 -42.585287 -51.057853 -0.000002 -0.000000 -0.000001 -2.762851 0.562061 -28.001967 -4.955470 19.849170 -66.706660 8.254599 -11.530676 -11.858704 -0.000002 0.000000 0.000001 -26.774779 -10.556179 28.026016 57.897622 -27.452209 -76.357178 -31.806552 39.254777 33.816349 -0.000000 -0.000002 -0.000000 1.738643 0.160924 -1.715955 -10.618584 -0.228730 2.310930 -9.872193 -6.160661 -1.226268 0.000001 -0.000001 0.000000 
-27.701740 116.040192 1.331937 4.329016 22.443645 7.539496 -5.358545 0.800226 -4.253624 -3.604103 -0.643785 1.333822 0.202968 -8.402963 -2.741368 -6.485269 -15.843739 13.688385 0.000000 -0.000001 0.000001 -1.343500 7.079167 -2.078859 15.826812 30.775200 -7.551776 63.535827 -43.519711 -50.626414 0.000001 0.000003 -0.000002 -2.803424 0.359118 -28.210286 -4.925122 20.039915 -66.451238 8.140025 -11.147329 -11.327518 -0.000003 0.000000 0.000001 -27.555053 -10.706228 27.119377 57.696486 -26.761151 -75.068642 -31.680203 40.008106 34.808823 0.000002 -0.000000 0.000001 1.279737 0.219992 -1.533065 -10.683660 -0.096171 2.246058 -9.771690 -5.747948 -1.092941 -0.000002 -0.000001 -0.000001 
-27.541080 115.986725 1.400847 2.473118 21.074525 7.290568 -2.931280 0.611120 -3.657126 -5.360978 -0.335305 0.958872 1.074126 -7.509324 -2.118719 -6.141275 -15.721016 13.809424 -0.000000 -0.000000 -0.000001 -1.737375 7.136296 -1.018715 16.000719 31.298836 -8.385188 63.615637 -43.534782 -52.152989 -0.000000 0.000001 -0.000002 -3.027831 0.510982 -28.470209 -5.360312 21.554306 -64.679125 7.747278 -11.902640 -11.652888 -0.000005 -0.000002 0.000003 -27.143088 -10.449446 25.881971 57.300164 -25.010951 -72.662640 -31.040017 39.307827 33.860946 -0.000003 0.000001 -0.000000 2.348353 0.264838 -0.654740 -9.119016 -0.003681 1.479536 -9.205479 -5.571310 -1.054482 0.000002 -0.000002 0.000001 
